<?xml version="1.0" encoding="UTF-8" standalone="no"?>
<!DOCTYPE svg PUBLIC "-//W3C//DTD SVG 1.1//EN" "http://www.w3.org/Graphics/SVG/1.1/DTD/svg11.dtd">
<svg version="1.1" xmlns="http://www.w3.org/2000/svg" xmlns:xlink="http://www.w3.org/1999/xlink" preserveAspectRatio="xMidYMid meet" viewBox="0 0 640 640" width="48" height="48"><defs><path d="M206.23 21.36C206.23 23.73 206.23 35.58 206.23 56.92C146.5 56.92 113.31 56.92 106.68 56.92C105.94 56.88 105.19 56.88 104.45 56.92C93.55 58.06 85.29 67.28 85.34 78.25C85.34 132.29 85.34 564.63 85.34 618.67C85.35 630.45 94.9 640 106.68 640C149.34 640 490.66 640 533.32 640C545.1 640 554.66 630.45 554.66 618.67C554.66 564.63 554.66 132.29 554.66 78.25C554.66 66.47 545.1 56.92 533.32 56.92C526.69 56.92 493.5 56.92 433.77 56.92C433.77 35.58 433.77 23.73 433.77 21.36C433.77 9.58 424.22 0.03 412.44 0.03C393.95 0.03 246.05 0.03 227.56 0.03C226.82 -0.01 226.08 -0.01 225.34 0.03C214.43 1.17 206.17 10.4 206.23 21.36ZM391.11 42.69L391.11 85.36L248.89 85.36L248.89 42.69L391.11 42.69ZM206.23 99.58C206.23 103.85 206.23 106.22 206.23 106.69C206.23 118.47 215.78 128.02 227.56 128.02C246.05 128.02 393.95 128.02 412.44 128.02C424.22 128.02 433.77 118.47 433.77 106.69C433.77 106.22 433.77 103.85 433.77 99.58L511.99 99.58L511.99 156.47L128.01 156.47L128.01 99.58L206.23 99.58ZM511.99 199.13L511.99 597.34L128.01 597.34L128.01 199.13L511.99 199.13ZM248 240.91C245.22 243.69 231.29 257.62 206.23 282.68C198.23 274.68 193.78 270.24 192.89 269.35C185.14 260.47 171.67 259.56 162.79 267.31C153.92 275.06 153 288.54 160.75 297.41C161.35 298.1 161.99 298.75 162.67 299.35C165.52 302.19 188.27 324.95 191.12 327.79C199.44 336.14 212.94 336.16 221.29 327.84C221.31 327.82 221.32 327.81 221.34 327.79C227.03 322.1 272.54 276.59 278.22 270.91C286.66 262.68 286.83 249.17 278.6 240.74C273.94 235.95 267.3 233.63 260.67 234.46C255.84 235.1 251.36 237.37 248 240.91ZM304.66 292.68C305.28 304.46 315.32 313.52 327.1 312.9C327.11 312.9 327.11 312.9 327.11 312.9C340.62 312.9 448.71 312.9 462.22 312.9C474 313.07 483.68 303.65 483.85 291.87C484.02 280.09 474.6 270.41 462.82 270.24C462.62 270.24 462.42 270.24 462.22 270.24C448.71 270.24 340.62 270.24 327.11 270.24C326.37 270.2 325.63 270.2 324.89 270.24C313.11 270.85 304.05 280.9 304.66 292.68ZM248 347.57C245.22 350.35 231.29 364.28 206.23 389.34C198.23 381.35 193.78 376.9 192.89 376.01C185.14 367.14 171.67 366.22 162.79 373.97C153.92 381.72 153 395.2 160.75 404.08C161.35 404.76 161.99 405.41 162.67 406.01C165.52 408.85 188.27 431.61 191.12 434.45C199.44 442.8 212.94 442.82 221.29 434.5C221.31 434.49 221.32 434.47 221.34 434.45C227.03 428.77 272.54 383.26 278.22 377.57C286.66 369.34 286.83 355.83 278.6 347.4C273.94 342.61 267.3 340.29 260.67 341.12C255.84 341.76 251.36 344.04 248 347.57ZM304.66 399.34C305.28 411.12 315.32 420.18 327.1 419.57C327.11 419.57 327.11 419.57 327.11 419.57C340.62 419.57 448.71 419.57 462.22 419.57C474 419.73 483.68 410.32 483.85 398.53C484.02 386.75 474.6 377.07 462.82 376.9C462.62 376.9 462.42 376.9 462.22 376.9C448.71 376.9 340.62 376.9 327.11 376.9C326.37 376.86 325.63 376.86 324.89 376.9C313.11 377.51 304.05 387.56 304.66 399.34ZM248 454.23C245.22 457.02 231.29 470.94 206.23 496.01C198.23 488.01 193.78 483.56 192.89 482.67C185.14 473.8 171.67 472.89 162.79 480.64C153.92 488.39 153 501.86 160.75 510.74C161.35 511.42 161.99 512.07 162.67 512.67C165.52 515.52 188.27 538.27 191.12 541.12C199.44 549.46 212.94 549.48 221.29 541.16C221.31 541.15 221.32 541.13 221.34 541.12C227.03 535.43 272.54 489.92 278.22 484.23C286.66 476 286.83 462.5 278.6 454.06C273.94 449.28 267.3 446.95 260.67 447.79C255.84 448.42 251.36 450.7 248 454.23ZM304.66 506C305.28 517.78 315.32 526.84 327.1 526.23C327.11 526.23 327.11 526.23 327.11 526.23C340.62 526.23 448.71 526.23 462.22 526.23C474 526.39 483.68 516.98 483.85 505.2C484.02 493.42 474.6 483.73 462.82 483.56C462.62 483.56 462.42 483.56 462.22 483.56C448.71 483.56 340.62 483.56 327.11 483.56C326.37 483.52 325.63 483.52 324.89 483.56C313.11 484.17 304.05 494.22 304.66 506Z" id="ebahIksod"></path></defs><g><g><g><use xlink:href="#ebahIksod" opacity="1" fill="#000000" fill-opacity="1"></use><g><use xlink:href="#ebahIksod" opacity="1" fill-opacity="0" stroke="#000000" stroke-width="6" stroke-opacity="0"></use></g></g></g></g></svg>